<svg xmlns="http://www.w3.org/2000/svg" viewBox="0 0 160 180" role="img" aria-label="Retrato do Viajante">
  <rect width="160" height="180" fill="#e7deff"/>
  <rect y="120" width="160" height="60" fill="#5e45b7"/>
  <circle cx="80" cy="62" r="34" fill="#3b315d"/>
  <circle cx="80" cy="78" r="28" fill="#cab2a2"/>
  <path d="M55 55c5-23 44-34 59-12-5-26-17-39-35-39-14 0-27 8-35 22l11 29z" fill="#30264e"/>
  <circle cx="69" cy="79" r="4" fill="#241a18"/>
  <circle cx="92" cy="79" r="4" fill="#241a18"/>
  <path d="M69 95c6 4 17 4 22 0" fill="none" stroke="#7c5146" stroke-width="3" stroke-linecap="round"/>
  <path d="M35 126c14-15 30-22 45-22 17 0 29 8 45 22" fill="none" stroke="#fff6a5" stroke-width="10" stroke-linecap="round"/>
  <text x="80" y="151" text-anchor="middle" font-family="Arial, sans-serif" font-size="16" fill="#f8f1ff">FLASH</text>
</svg>
